<svg id="Layer_1" data-name="Layer 1" xmlns="http://www.w3.org/2000/svg" viewBox="0 0 232 77"><defs><style>.cls-1{fill:#fb7555;}.cls-2{fill:#c43e20;}.cls-3{fill:#fff;}.cls-4{fill:#3d3d3d;}</style></defs><title>lockup-fullcolor-black</title><path class="cls-1" d="M32,56A24,24,0,1,1,56,32V56Z"/><path class="cls-2" d="M56,58H32A26,26,0,1,1,58,32V56A2,2,0,0,1,56,58ZM32,10a22,22,0,0,0,0,44H54V32A22,22,0,0,0,32,10Z"/><path class="cls-3" d="M41,25H23a2,2,0,0,1,0-4H41a2,2,0,0,1,0,4Z"/><path class="cls-3" d="M41,43H23a2,2,0,0,1,0-4H41a2,2,0,0,1,0,4Z"/><path class="cls-3" d="M47,34H17a2,2,0,0,1,0-4H47a2,2,0,0,1,0,4Z"/><path class="cls-4" d="M112,55.25,116.22,61l-10.06,5.09-6-8.06C83.7,57.93,74,45.57,74,32S83.77,6,100.28,6s26.21,12.43,26.21,26C126.49,41.9,121.17,51.22,112,55.25ZM114.8,32c0-8.13-5.53-15.69-14.52-15.69S85.76,23.88,85.76,32s5.45,15.68,14.52,15.68S114.8,40.13,114.8,32Z"/><path class="cls-4" d="M164.31,22.68V56.73H153.47V51.86c-1.91,3.6-5.88,5.72-11.19,5.72-4.39,0-7.72-1.48-9.56-3.88-2.13-2.62-2.62-5.94-2.62-10.81V22.68h10.77V40.13c0,4.88,1.48,8.27,6,8.27s6.58-3.39,6.58-8.62V22.68Z"/><path class="cls-4" d="M176.07,4.52a6.86,6.86,0,1,1-6.94,6.86A6.85,6.85,0,0,1,176.07,4.52Zm-5.38,18.16h10.83V56.73H170.69Z"/><path class="cls-4" d="M198.73,27.56c1.63-3.11,6-5.73,10.49-5.73,9.84,0,16.64,7.7,16.64,17.88s-6.8,17.87-16.64,17.87c-4.47,0-8.86-2.61-10.49-5.72V72.13H187.9V22.68h10.83Zm0,12.15c0,4.73,3.26,8.69,8.22,8.69s8.08-4,8.08-8.69S211.77,31,207,31,198.73,35,198.73,39.71Z"/></svg>